<?xml version="1.0" encoding="utf-8"?>
<!-- Generator: Adobe Illustrator 22.0.0, SVG Export Plug-In . SVG Version: 6.00 Build 0)  -->
<svg version="1.1" id="图层_1" xmlns="http://www.w3.org/2000/svg" xmlns:xlink="http://www.w3.org/1999/xlink" x="0px" y="0px"
	 viewBox="0 0 24 40" style="enable-background:new 0 0 24 40;" xml:space="preserve">
<style type="text/css">
	.st0{fill:#D5A33E;stroke:#000000;stroke-width:0.1145;stroke-miterlimit:10;}
	.st1{fill:#F2E03A;stroke:#000000;stroke-width:0.1145;stroke-miterlimit:10;}
	.st2{fill:#F9FAF8;stroke:#000000;stroke-width:0.101;stroke-miterlimit:10;}
</style>
<path class="st0" d="M19.2,35.2c0,0-1.9,1.9-5.8,2.2h-2.1c0,0-3.2,0-5.5-2.2H19.2z"/>
<path class="st1" d="M5.2,35.3c0,0,0.9,0.9,5.7,0.9l0.3-0.1h2.7l0.1,0.1c0,0,3.9,0.3,6.1-0.9c0,0,0.9-14,1-16.1
	c0.1-2,0.8-12.9-8.3-16.5c0,0-9.6,1.8-8.7,15.8S5.2,35.3,5.2,35.3z"/>
<path class="st2" d="M7.4,30.5c0,0,0.6,0.6,4,0.7l0.2-0.1h1.9l0.1,0.1c0,0,2.7,0.2,4.2-0.7c0,0,0.6-9.7,0.7-11.2
	c0.1-1.4,0.5-8.9-5.7-11.5c0,0-6.6,1.2-6.1,11S7.4,30.5,7.4,30.5z"/>
</svg>
